{"title":"DISNEY PIXARS-RATATOUILLE IN H.264 BY KIDZCORNER","uid":5051240,"size":1050377789,"categoryP":"video","categoryS":"movies","magnet":"?xt=urn:btih:62a9fa1c5cdc21af821e9b42e93f4ee0f0518d33&amp;dn=DISNEY+PIXARS-RATATOUILLE+IN+H.264+BY+KIDZCORNER&amp;tr=udp%3A%2F%2Ftracker.openbittorrent.com%3A80&amp;tr=udp%3A%2F%2Fopen.demonii.com%3A1337&amp;tr=udp%3A%2F%2Ftracker.coppersurfer.tk%3A6969&amp;tr=udp%3A%2F%2Fexodus.desync.com%3A6969","seeders":0,"leechers":1,"uploader":"alanwatson","files":5,"time":1250183487,"description":"in Pixar's new animated-adventure, Ratatouille, a rat named Remy dreams of becoming a great French chef despite his family's wishes and the obvious problem of being a rat in a decidedly rodent-phobic profession. When fate places Remy in the sewers of Paris, he finds himself ideally situated beneath a restaurant made famous by his culinary hero, Auguste Gusteau. Despite the apparent dangers of being an unlikely - and certainly unwanted - visitor in the kitchen of a fine French restaurant, Remy's passion for cooking soon sets into motion a hilarious and exciting rat race that turns the culinary world of Paris upside down.\n\nRemy finds himself torn between his calling and passion in life or returning forever to his previous existence as a rat. He learns the truth about friendship, family and having no choice but to be who he really is, a rat who wants to be a chef.\n\n\n\n\nFormat : MPEG-4\nFormat profile : Base Media / Version 2\nCodec ID : mp42\nFile size : 999 MiB\nDuration : 1h 46mn\nOverall bit rate : 1 318 Kbps\nEncoded date : UTC 2009-08-11 16:04:48\nTagged date : UTC 2009-08-11 19:51:41\nWriting application : HandBrake 0.9.3 2008112300\n\nVideo\nID : 1\nFormat : AVC\nFormat/Info : Advanced Video Codec\nFormat profile : &lt;a class=&quot;__cf_email__&quot; href=&quot;/cdn-cgi/l/email-protection&quot; data-cfemail=&quot;1c517d75725c5028322c&quot;&gt;[email&amp;#160;protected]&lt;/a&gt;&lt;script cf-hash='f9e31' type=&quot;text/javascript&quot;&gt;\n/* &lt;![CDATA[ */!function(){try{var t=&quot;currentScript&quot;in document?document.currentScript:function(){for(var t=document.getElementsByTagName(&quot;script&quot;),e=t.length;e--;)if(t[e].getAttribute(&quot;cf-hash&quot;))return t[e]}();if(t&amp;&amp;t.previousSibling){var e,r,n,i,c=t.previousSibling,a=c.getAttribute(&quot;data-cfemail&quot;);if(a){for(e=&quot;&quot;,r=parseInt(a.substr(0,2),16),n=2;a.length-n;n+=2)i=parseInt(a.substr(n,2),16)^r,e+=String.fromCharCode(i);e=document.createTextNode(e),c.parentNode.replaceChild(e,c)}}}catch(u){}}();/* ]]&gt; */&lt;/script&gt;\nFormat settings, CABAC : Yes\nFormat settings, ReFrames : 3 frames\nCodec ID : avc1\nCodec ID/Info : Advanced Video Coding\nDuration : 1h 46mn\nBit rate mode : Variable\nBit rate : 1 154 Kbps\nWidth : 720 pixels\nHeight : 428 pixels\nDisplay aspect ratio : 2.35\nFrame rate mode : Variable\nFrame rate : 25.000 fps\nMinimum frame rate : 12.500 fps\nMaximum frame rate : 57.143 fps\nResolution : 24 bits\nColorimetry : 4:2:0\nScan type : Progressive\nBits/(Pixel*Frame) : 0.150\nStream size : 875 MiB (88%)\nWriting library : x264 core 65\n\nAudio\nID : 2\nFormat : AAC\nFormat/Info : Advanced Audio Codec\nFormat version : Version 4\nFormat profile : LC\nFormat settings, SBR : No\nCodec ID : 40\nDuration : 1h 46mn\nBit rate mode : Variable\nBit rate : 160 Kbps\nMaximum bit rate : 260 Kbps\nChannel(s) : 2 channels\nChannel positions : L R\nSampling rate : 48.0 KHz\nResolution : 16 bits\nStream size : 121 MiB (12%)\nLanguage : English\nEncoded date : UTC 2009-08-11 16:04:48\nTagged date : UTC 2009-08-11 19:51:38\n","torrent":{"xt":"urn:btih:62a9fa1c5cdc21af821e9b42e93f4ee0f0518d33","amp;dn":"DISNEY+PIXARS-RATATOUILLE+IN+H.264+BY+KIDZCORNER","amp;tr":["udp%3A%2F%2Ftracker.openbittorrent.com%3A80","udp%3A%2F%2Fopen.demonii.com%3A1337","udp%3A%2F%2Ftracker.coppersurfer.tk%3A6969","udp%3A%2F%2Fexodus.desync.com%3A6969"],"infoHash":"62a9fa1c5cdc21af821e9b42e93f4ee0f0518d33","infoHashBuffer":{"type":"Buffer","data":[98,169,250,28,92,220,33,175,130,30,155,66,233,63,78,224,240,81,141,51]},"announce":[],"urlList":[]}}